<?xml version="1.0" standalone="no"?>
<!DOCTYPE svg PUBLIC "-//W3C//DTD SVG 1.1//EN" "http://www.w3.org/Graphics/SVG/1.1/DTD/svg11.dtd" >
<svg xmlns="http://www.w3.org/2000/svg">
<metadata></metadata>
<defs>
<font id="wildstarregular" horiz-adv-x="1705" >
<font-face units-per-em="2048" ascent="1536" descent="-512" />
<missing-glyph horiz-adv-x="1024" />
<glyph horiz-adv-x="0" />
<glyph horiz-adv-x="682" />
<glyph unicode=" "  horiz-adv-x="1024" />
<glyph unicode="&#x09;" horiz-adv-x="1024" />
<glyph unicode="&#xa0;" horiz-adv-x="1024" />
<glyph unicode="0" />
<glyph unicode="1" />
<glyph unicode="2" />
<glyph unicode="3" />
<glyph unicode="4" />
<glyph unicode="5" />
<glyph unicode="6" />
<glyph unicode="7" />
<glyph unicode="8" />
<glyph unicode="9" />
<glyph unicode="A" horiz-adv-x="1622" d="M-205 35l979 1247l1077 -1278h-1183v340h565l-459 514l-616 -823h-363z" />
<glyph unicode="B" horiz-adv-x="1337" d="M84 37v1243h1171v-313l-168 -172h168v-306l-464 -493h-422l442 504h-432l442 467h-442v-930h-295z" />
<glyph unicode="C" horiz-adv-x="1441" d="M84 319v959h1276v-307h-959v-490l152 -162h807v-317h-959z" />
<glyph unicode="D" horiz-adv-x="1650" d="M82 0v874h348v-526h737q28 9 46.5 35t22.5 48l5 22v454h-1159v369h1393q33 -9 56.5 -35t30.5 -48l7 -22v-1003q-6 -35 -24 -65t-40.5 -48.5t-43.5 -31.5t-35 -18l-15 -5h-1329z" />
<glyph unicode="E" horiz-adv-x="1495" d="M86 0v322h1325v-322h-1325zM86 479v322h1325v-322h-1325zM86 963v317h1325v-317h-1325z" />
<glyph unicode="F" horiz-adv-x="1595" d="M82 0v1276h1429v-348h-1077v-185h1077l-366 -348h-701v-395h-10h-352z" />
<glyph unicode="G" horiz-adv-x="1447" d="M84 -2v954l328 328h954l-319 -319h-480l-164 -164v-471h635v163h-544l307 308h565v-799h-1282z" />
<glyph unicode="H" horiz-adv-x="1562" d="M82 0v1278h414v-496h573v496h414v-1278h-414v537h-573v-537h-414z" />
<glyph unicode="I" horiz-adv-x="460" d="M82 -2v1284h295v-1284h-295z" />
<glyph unicode="J" horiz-adv-x="1206" d="M84 129v369h233v-256h574v1038h233v-1161q0 -28 -12.5 -51t-31 -35.5t-36.5 -20.5t-30 -11l-13 -3h-796q-41 0 -71 32.5t-40 65.5z" />
<glyph unicode="K" horiz-adv-x="1316" d="M82 0v1280h326v-522l413 522h414l-522 -639l522 -641h-414l-413 532v-532h-326z" />
<glyph unicode="L" horiz-adv-x="1298" d="M84 0v1280h315v-954h815v-326h-1130z" />
<glyph unicode="M" horiz-adv-x="2463" d="M-125 0l772 1278l580 -813l573 813l783 -1278h-486l-317 559l-553 -688l-549 688l-316 -559h-487z" />
<glyph unicode="N" horiz-adv-x="1601" d="M84 20v1100q2 6 5.5 17t16.5 38t29.5 48t45 38t61.5 17h1097q7 -3 19.5 -8t43.5 -23.5t55 -39.5t43.5 -56.5t19.5 -73.5v-1077h-435v877q-2 2 1 14t-7.5 26.5t-34.5 14.5h-456q-7 -1 -17.5 -4.5t-27.5 -17.5t-17 -33v-857h-442z" />
<glyph unicode="O" horiz-adv-x="1630" d="M82 164v1003q0 33 23.5 62t46.5 42l24 13h1274q4 -2 10.5 -5t23 -14.5t29 -24t23 -32.5t10.5 -41v-1003q-3 -7 -8.5 -18t-22.5 -39.5t-34.5 -50.5t-42.5 -40t-49 -18h-1151q-36 0 -75 41.5t-60 82.5zM408 459q0 -24 7.5 -44.5t18 -33t21.5 -22t19 -13.5l7 -4h666q3 1 8 4 t18 13t22.5 22.5t17.5 33t8 44.5v459h-813v-459z" />
<glyph unicode="P" horiz-adv-x="2072" d="M84 918v366h1589q8 -4 21 -12.5t50 -36t70 -57t71 -75.5t63 -93q26 -46 38 -106q7 -32 6 -64q0 -28 -4 -54q-10 -58 -52.5 -126t-116.5 -134q-4 -5 -13 -13.5t-45.5 -39t-82 -64.5t-126 -88t-174.5 -110l-233 221q6 4 17 11.5t45 32.5t63.5 48.5t74 60.5t75.5 68.5 t67.5 72t51 71t26 65.5t-8.5 56h-1472zM250 0v821h391v-821h-391z" />
<glyph unicode="Q" horiz-adv-x="1753" d="M84 94v1016q0 3 1 7.5t5 18t10.5 27t19 31t28.5 32t41 28.5t55 22h1425v-954l283 -271l-295 -305l-250 252h-1217q-4 1 -11.5 2.5t-25.5 9.5t-32 17.5t-25.5 27.5t-11.5 39zM432 365h596l-168 170l295 290l154 -155v262h-785q-32 0 -55 -29t-30 -59l-7 -29v-450z" />
<glyph unicode="R" horiz-adv-x="2134" d="M82 911v367h1581q8 -4 21 -12t50.5 -34.5t70.5 -55t71.5 -73t63.5 -89.5q26 -46 38 -104q7 -32 6 -63q0 -26 -4 -53q-10 -58 -52 -125.5t-116 -133.5q-32 -41 -126 -107l481 -405h-545l-242 196l-239 209q6 4 16.5 11.5t44.5 32.5t63.5 49t73.5 61t75 68t67.5 71t51 70.5 t26 65t-8.5 54.5h-1468zM250 0v819h387v-819h-387z" />
<glyph unicode="S" horiz-adv-x="1660" d="M82 2v360h1055q7 4 14 9t11.5 9t9.5 12.5t7 11.5t6 13.5t5 12.5t4 14l4 11h-1116v522q4 59 22.5 108t44 79.5t56 53t60 33.5t54 18t39.5 8l15 1h1206v-363h-1065q-12 -3 -21 -10.5t-15.5 -21t-10 -22t-8.5 -26t-6 -20.5h1126v-512q-6 -57 -26.5 -105t-47.5 -78t-58.5 -53 t-61.5 -35t-54.5 -19.5t-39.5 -8.5l-15 -2h-1194z" />
<glyph unicode="T" horiz-adv-x="1769" d="M82 887v389h1606v-389h-588v-887h-420v887h-598z" />
<glyph unicode="U" horiz-adv-x="1443" d="M82 0v1280h319v-961h482l157 160v801h322v-961l-322 -319h-958z" />
<glyph unicode="V" horiz-adv-x="1677" d="M82 1280h440l318 -819l315 819h442l-563 -1280h-389z" />
<glyph unicode="W" horiz-adv-x="2457" d="M-133 1278h483l322 -547l549 676l546 -676l320 547h485l-780 -1278l-571 813l-584 -813z" />
<glyph unicode="X" horiz-adv-x="1552" d="M84 0l473 651l-473 631h453l241 -326l242 326h450l-473 -631l473 -651h-440l-252 346l-264 -346h-430z" />
<glyph unicode="Y" horiz-adv-x="1570" d="M82 918v360l702 -385l701 385v-360l-559 -302v-616l-285 150v466z" />
<glyph unicode="Z" horiz-adv-x="1710" d="M84 -2v410l909 520h-909v350h1540v-410l-930 -520h930v-350h-1540z" />
<glyph unicode="a" horiz-adv-x="1622" d="M-205 35l979 1247l1077 -1278h-1183v340h565l-459 514l-616 -823h-363z" />
<glyph unicode="b" horiz-adv-x="1337" d="M84 37v1243h1171v-313l-168 -172h168v-306l-464 -493h-422l442 504h-432l442 467h-442v-930h-295z" />
<glyph unicode="c" horiz-adv-x="1441" d="M84 319v959h1276v-307h-959v-490l152 -162h807v-317h-959z" />
<glyph unicode="d" horiz-adv-x="1650" d="M82 0v874h348v-526h737q28 9 46.5 35t22.5 48l5 22v454h-1159v369h1393q33 -9 56.5 -35t30.5 -48l7 -22v-1003q-6 -35 -24 -65t-40.5 -48.5t-43.5 -31.5t-35 -18l-15 -5h-1329z" />
<glyph unicode="e" horiz-adv-x="1495" d="M86 0v322h1325v-322h-1325zM86 479v322h1325v-322h-1325zM86 963v317h1325v-317h-1325z" />
<glyph unicode="f" horiz-adv-x="1595" d="M82 0v1276h1429v-348h-1077v-185h1077l-366 -348h-701v-395h-10h-352z" />
<glyph unicode="g" horiz-adv-x="1447" d="M84 -2v954l328 328h954l-319 -319h-480l-164 -164v-471h635v163h-544l307 308h565v-799h-1282z" />
<glyph unicode="h" horiz-adv-x="1562" d="M82 0v1278h414v-496h573v496h414v-1278h-414v537h-573v-537h-414z" />
<glyph unicode="i" horiz-adv-x="460" d="M82 -2v1284h295v-1284h-295z" />
<glyph unicode="j" horiz-adv-x="1206" d="M84 129v369h233v-256h574v1038h233v-1161q0 -28 -12.5 -51t-31 -35.5t-36.5 -20.5t-30 -11l-13 -3h-796q-41 0 -71 32.5t-40 65.5z" />
<glyph unicode="k" horiz-adv-x="1316" d="M82 0v1280h326v-522l413 522h414l-522 -639l522 -641h-414l-413 532v-532h-326z" />
<glyph unicode="l" horiz-adv-x="1298" d="M84 0v1280h315v-954h815v-326h-1130z" />
<glyph unicode="m" horiz-adv-x="2463" d="M-125 0l772 1278l580 -813l573 813l783 -1278h-486l-317 559l-553 -688l-549 688l-316 -559h-487z" />
<glyph unicode="n" horiz-adv-x="1601" d="M84 20v1100q2 6 5.5 17t16.5 38t29.5 48t45 38t61.5 17h1097q7 -3 19.5 -8t43.5 -23.5t55 -39.5t43.5 -56.5t19.5 -73.5v-1077h-435v877q-2 2 1 14t-7.5 26.5t-34.5 14.5h-456q-7 -1 -17.5 -4.5t-27.5 -17.5t-17 -33v-857h-442z" />
<glyph unicode="o" horiz-adv-x="1630" d="M82 164v1003q0 33 23.5 62t46.5 42l24 13h1274q4 -2 10.5 -5t23 -14.5t29 -24t23 -32.5t10.5 -41v-1003q-3 -7 -8.5 -18t-22.5 -39.5t-34.5 -50.5t-42.5 -40t-49 -18h-1151q-36 0 -75 41.5t-60 82.5zM408 459q0 -24 7.5 -44.5t18 -33t21.5 -22t19 -13.5l7 -4h666q3 1 8 4 t18 13t22.5 22.5t17.5 33t8 44.5v459h-813v-459z" />
<glyph unicode="p" horiz-adv-x="2072" d="M84 918v366h1589q8 -4 21 -12.5t50 -36t70 -57t71 -75.5t63 -92.5t38 -106.5q6 -32 6 -64q0 -27 -4 -54q-11 -58 -53 -126t-116 -134q-4 -5 -13 -13.5t-45.5 -39t-82 -64.5t-126 -88t-174.5 -110l-233 221q6 4 17 11.5t45 32.5t63.5 48.5t74 60.5t75.5 68.5t67.5 72 t51 71t26 65.5t-8.5 56h-1472zM250 0v821h391v-821h-391z" />
<glyph unicode="q" horiz-adv-x="1753" d="M84 94v1016q0 3 1 7.5t5 18t10.5 27t19 31t28.5 32t41 28.5t55 22h1425v-954l283 -271l-295 -305l-250 252h-1217q-4 1 -11.5 2.5t-25.5 9.5t-32 17.5t-25.5 27.5t-11.5 39zM432 365h596l-168 170l295 290l154 -155v262h-785q-32 0 -55 -29t-30 -59l-7 -29v-450z" />
<glyph unicode="r" horiz-adv-x="2134" d="M82 911v367h1581q8 -4 21 -12t50.5 -34.5t70.5 -55t71.5 -73t63.5 -89.5q26 -46 38 -104q7 -32 6 -63q0 -26 -4 -53q-10 -58 -52 -125.5t-116 -133.5q-32 -41 -126 -107l481 -405h-545l-242 196l-239 209q6 4 16.5 11.5t44.5 32.5t63.5 49t73.5 61t75 68t67.5 71t51 70.5 t26 65t-8.5 54.5h-1468zM250 0v819h387v-819h-387z" />
<glyph unicode="s" horiz-adv-x="1660" d="M82 2v360h1055q7 4 14 9t11.5 9t9.5 12.5t7 11.5t6 13.5t5 12.5t4 14l4 11h-1116v522q4 59 22.5 108t44 79.5t56 53t60 33.5t54 18t39.5 8l15 1h1206v-363h-1065q-12 -3 -21 -10.5t-15.5 -21t-10 -22t-8.5 -26t-6 -20.5h1126v-512q-6 -57 -26.5 -105t-47.5 -78t-58.5 -53 t-61.5 -35t-54.5 -19.5t-39.5 -8.5l-15 -2h-1194z" />
<glyph unicode="t" horiz-adv-x="1769" d="M82 887v389h1606v-389h-588v-887h-420v887h-598z" />
<glyph unicode="u" horiz-adv-x="1443" d="M82 0v1280h319v-961h482l157 160v801h322v-961l-322 -319h-958z" />
<glyph unicode="v" horiz-adv-x="1677" d="M82 1280h440l318 -819l315 819h442l-563 -1280h-389z" />
<glyph unicode="w" horiz-adv-x="2457" d="M-133 1278h483l322 -547l549 676l546 -676l320 547h485l-780 -1278l-571 813l-584 -813z" />
<glyph unicode="x" horiz-adv-x="1552" d="M84 0l473 651l-473 631h453l241 -326l242 326h450l-473 -631l473 -651h-440l-252 346l-264 -346h-430z" />
<glyph unicode="y" horiz-adv-x="1570" d="M82 918v360l702 -385l701 385v-360l-559 -302v-616l-285 150v466z" />
<glyph unicode="z" horiz-adv-x="1710" d="M84 -2v410l909 520h-909v350h1540v-410l-930 -520h930v-350h-1540z" />
<glyph unicode="&#x2000;" horiz-adv-x="703" />
<glyph unicode="&#x2001;" horiz-adv-x="1407" />
<glyph unicode="&#x2002;" horiz-adv-x="703" />
<glyph unicode="&#x2003;" horiz-adv-x="1407" />
<glyph unicode="&#x2004;" horiz-adv-x="469" />
<glyph unicode="&#x2005;" horiz-adv-x="351" />
<glyph unicode="&#x2006;" horiz-adv-x="234" />
<glyph unicode="&#x2007;" horiz-adv-x="234" />
<glyph unicode="&#x2008;" horiz-adv-x="175" />
<glyph unicode="&#x2009;" horiz-adv-x="281" />
<glyph unicode="&#x200a;" horiz-adv-x="78" />
<glyph unicode="&#x202f;" horiz-adv-x="281" />
<glyph unicode="&#x205f;" horiz-adv-x="351" />
<glyph unicode="&#x25fc;" horiz-adv-x="1280" d="M0 0v1280h1280v-1280h-1280z" />
</font>
</defs>
</svg>
